<?xml version="1.0" encoding="UTF-8" standalone="no"?>
<!--Created with Inkscape (http://www.inkscape.org/)-->
<svg xmlns="http://www.w3.org/2000/svg" xmlns:cc="http://creativecommons.org/ns#" xmlns:dc="http://purl.org/dc/elements/1.1/" xmlns:inkscape="http://www.inkscape.org/namespaces/inkscape" xmlns:rdf="http://www.w3.org/1999/02/22-rdf-syntax-ns#" xmlns:sodipodi="http://sodipodi.sourceforge.net/DTD/sodipodi-0.dtd" xmlns:svg="http://www.w3.org/2000/svg" id="svg8" width="100%" version="1.1" viewBox="0 0 100 10" inkscape:version="0.92.2 5c3e80d, 2017-08-06" sodipodi:docname="cathedral-header.svg">
    <defs id="defs2"/>
    <sodipodi:namedview id="base" bordercolor="#666666" borderopacity="1.0" pagecolor="#ffffff" showgrid="false" inkscape:current-layer="layer1" inkscape:cx="195.73668" inkscape:cy="-9.4472403" inkscape:document-units="mm" inkscape:pageopacity="0.0" inkscape:pageshadow="2" inkscape:window-height="1555" inkscape:window-maximized="1" inkscape:window-width="2506" inkscape:window-x="0" inkscape:window-y="1" inkscape:zoom="2.8"/>
    <metadata id="metadata5">
        <rdf:RDF>
            <cc:Work rdf:about="">
                <dc:format>
                    image/svg+xml
                </dc:format>
                <dc:type rdf:resource="http://purl.org/dc/dcmitype/StillImage"/>
                <dc:title/>
            </cc:Work>
        </rdf:RDF>
    </metadata>
    <g id="layer1" transform="translate(0,-287)" inkscape:groupmode="layer" inkscape:label="Layer 1">
        <g id="text817" aria-label="Cathedral Software" style="font-style:normal;font-variant:normal;font-weight:normal;font-stretch:normal;font-size:10.50693512px;line-height:125%;font-family:'Revue LT';-inkscape-font-specification:'Revue LT';letter-spacing:0px;word-spacing:0px;fill:#fd00fd;fill-opacity:1;stroke:none;stroke-width:0.32834172px;stroke-linecap:butt;stroke-linejoin:miter;stroke-opacity:1" transform="translate(-0.09449405,0.15119048)">
            <path id="path827" d="M 5.8143671,296.0903 H 5.4256105 q -1.0927213,0 -1.9963177,-0.42028 -0.9035964,-0.43078 -1.5550264,-1.14525 -0.640923,-0.72498 -1.00866576,-1.6706 -0.35723579,-0.94563 -0.35723579,-1.98582 0,-0.65143 0.1786179,-1.25032 0.17861789,-0.6094 0.57788145,-1.07171 0.3992635,-0.47281 1.0506935,-0.7565 0.6619369,-0.28368 1.6285749,-0.28368 h 1.7546582 l 0.5253468,1.93327 H 4.4694794 q -0.168111,0 -0.4517982,0.0315 -0.2731803,0.021 -0.5463606,0.17862 -0.2626734,0.1471 -0.4623052,0.48332 -0.1996318,0.32571 -0.1996318,0.93512 0,0.65143 0.2311526,1.22931 0.2416595,0.57788 0.6934577,1.00866 0.4517982,0.43079 1.1032282,0.67245 0.6619369,0.23115 1.5024917,0.17862 z" style="stroke-width:0.32834172px;fill:#fd00fd;fill-opacity:1" inkscape:connector-curvature="0"/>
            <path id="path829" d="M 10.238608,291.45674 H 9.5871778 q -0.1155763,0 -0.2836872,0.021 -0.168111,0.0105 -0.325715,0.0946 -0.1576041,0.0736 -0.2731803,0.25217 -0.1050694,0.17861 -0.1050694,0.50433 0,0.35723 0.1155763,0.70396 0.1155763,0.34673 0.325715,0.63042 0.2206456,0.28369 0.5253467,0.48332 0.3047012,0.18912 0.6724441,0.23115 z m 2.017331,4.63356 h -2.027838 q -0.7564995,0 -1.4289433,-0.3047 -0.6724439,-0.31521 -1.1767768,-0.85106 -0.4938259,-0.53586 -0.7880201,-1.23982 -0.2941942,-0.71447 -0.2941942,-1.513 0,-0.47281 0.1260832,-0.90359 0.1260833,-0.4413 0.4307844,-0.77752 0.3047011,-0.34673 0.809034,-0.54636 0.5148398,-0.21014 1.2713391,-0.21014 h 3.0785317 z" style="stroke-width:0.32834172px;fill:#fd00fd;fill-opacity:1" inkscape:connector-curvature="0"/>
            <path id="path831" d="m 15.514567,289.74411 h 1.0612 v 1.6601 h -1.0612 v 2.41659 q 0,0.22065 0.09456,0.37825 0.10507,0.15761 0.420278,0.17862 h 0.798527 l -0.504333,1.71263 h -0.914103 q -0.409771,0 -0.767007,-0.084 -0.346729,-0.0946 -0.609402,-0.31521 -0.252166,-0.22065 -0.399264,-0.58839 -0.13659,-0.37825 -0.13659,-0.95613 v -2.74231 h -0.451798 v -1.6601 h 0.451798 v -1.23982 l 2.017332,-0.59889 z" style="stroke-width:0.32834172px;fill:#fd00fd;fill-opacity:1" inkscape:connector-curvature="0"/>
            <path id="path833" d="m 19.411162,289.74411 h 1.113735 q 0.640923,0 1.071707,0.1471 0.441291,0.1471 0.703965,0.4518 0.27318,0.29419 0.378249,0.7565 0.115577,0.4518 0.115577,1.08221 v 3.90858 h -2.017332 v -3.61438 q -0.01051,-0.30471 -0.03152,-0.49383 -0.01051,-0.19963 -0.09456,-0.31521 -0.08405,-0.11557 -0.262673,-0.1576 -0.178618,-0.042 -0.493826,-0.0525 h -0.483319 v 4.63356 H 17.39383 v -8.58416 h 2.017332 z" style="stroke-width:0.32834172px;fill:#fd00fd;fill-opacity:1" inkscape:connector-curvature="0"/>
            <path id="path835" d="m 27.208785,291.63536 q 0,-0.12608 -0.06304,-0.18912 -0.06304,-0.063 -0.157604,-0.0946 -0.09456,-0.0315 -0.199632,-0.0315 -0.105069,-0.0105 -0.199631,-0.0105 -0.472813,0 -0.724979,0.24166 -0.252166,0.23115 -0.252166,0.70396 0,0.36774 0.13659,0.7565 0.157604,-0.0841 0.40977,-0.23115 0.252167,-0.1471 0.483319,-0.33622 0.231153,-0.18913 0.399264,-0.38876 0.168111,-0.21014 0.168111,-0.42028 z m 1.250325,4.45494 h -1.218805 q -0.756499,0 -1.428943,-0.3047 -0.672444,-0.31521 -1.176776,-0.85106 -0.493826,-0.53586 -0.788021,-1.23982 -0.294194,-0.71447 -0.294194,-1.513 0.01051,-0.67244 0.168111,-1.15576 0.168111,-0.49383 0.51484,-0.80904 0.346729,-0.32571 0.89309,-0.47281 0.556867,-0.1576 1.33438,-0.14709 h 0.420278 q 0.619909,0 1.040186,0.11557 0.420278,0.10507 0.682951,0.27318 0.262673,0.16811 0.399264,0.37825 0.13659,0.19963 0.189124,0.39927 0.06304,0.18912 0.06304,0.35723 0.01051,0.15761 0.01051,0.23115 0,0.52535 -0.210139,0.96664 -0.199631,0.43079 -0.525346,0.78802 -0.325715,0.34673 -0.745993,0.64092 -0.40977,0.28369 -0.819541,0.51484 0.399264,0.0841 0.672444,0.10507 0.27318,0.0105 0.525347,0.0105 h 0.798527 z" style="stroke-width:0.32834172px;fill:#fd00fd;fill-opacity:1" inkscape:connector-curvature="0"/>
            <path id="path837" d="m 32.694227,291.45674 q -0.115576,0 -0.283687,0.021 -0.168111,0.0105 -0.325715,0.0946 -0.157604,0.0736 -0.27318,0.25217 -0.10507,0.17861 -0.10507,0.50433 0,0.35723 0.115577,0.70396 0.115576,0.34673 0.325715,0.63042 0.220645,0.28369 0.525346,0.48332 0.304702,0.18912 0.672444,0.23115 h 0.06304 v -2.92093 z m 2.731803,-3.9506 v 8.58416 h -2.09088 q -0.756499,0 -1.428943,-0.3047 -0.672444,-0.31521 -1.176777,-0.85106 -0.493826,-0.53586 -0.78802,-1.23982 -0.294194,-0.71447 -0.294194,-1.513 0,-0.47281 0.126083,-0.90359 0.126084,-0.4413 0.430785,-0.77752 0.304701,-0.34673 0.809034,-0.54636 0.514839,-0.21014 1.271339,-0.21014 h 1.124242 v -2.23797 z" style="stroke-width:0.32834172px;fill:#fd00fd;fill-opacity:1" inkscape:connector-curvature="0"/>
            <path id="path839" d="m 38.485024,289.74411 v 0.36775 q 0.304701,-0.28369 0.65143,-0.38876 0.346729,-0.11558 0.756499,-0.12608 v 1.8177 q -0.399263,0.021 -0.756499,0.16811 -0.357236,0.14709 -0.567375,0.51484 v 3.99263 h -2.017331 v -6.34619 z" style="stroke-width:0.32834172px;fill:#fd00fd;fill-opacity:1" inkscape:connector-curvature="0"/>
            <path id="path841" d="m 44.057804,291.45674 h -0.65143 q -0.115576,0 -0.283687,0.021 -0.168111,0.0105 -0.325715,0.0946 -0.157604,0.0736 -0.273181,0.25217 -0.105069,0.17861 -0.105069,0.50433 0,0.35723 0.115576,0.70396 0.115577,0.34673 0.325715,0.63042 0.220646,0.28369 0.525347,0.48332 0.304701,0.18912 0.672444,0.23115 z m 2.017332,4.63356 h -2.027839 q -0.756499,0 -1.428943,-0.3047 -0.672444,-0.31521 -1.176777,-0.85106 -0.493826,-0.53586 -0.78802,-1.23982 -0.294194,-0.71447 -0.294194,-1.513 0,-0.47281 0.126083,-0.90359 0.126083,-0.4413 0.430784,-0.77752 0.304702,-0.34673 0.809034,-0.54636 0.51484,-0.21014 1.27134,-0.21014 h 3.078532 z" style="stroke-width:0.32834172px;fill:#fd00fd;fill-opacity:1" inkscape:connector-curvature="0"/>
            <path id="path843" d="m 49.239202,296.0903 h -2.017331 v -8.58416 h 2.017331 z" style="stroke-width:0.32834172px;fill:#fd00fd;fill-opacity:1" inkscape:connector-curvature="0"/>
            <path id="path845" d="m 59.014754,289.43941 h -1.891248 q -0.08405,0 -0.231152,0 -0.136591,-0.0105 -0.273181,0.021 -0.126083,0.021 -0.231152,0.0841 -0.09456,0.0525 -0.09456,0.17862 0,0.17862 0.126083,0.32571 0.126084,0.1471 0.24166,0.27318 l 1.565533,1.73365 q 0.199632,0.22064 0.388757,0.4518 0.189125,0.22064 0.336222,0.47281 0.157604,0.25217 0.241659,0.53585 0.09456,0.27318 0.09456,0.58839 0,0.28369 -0.09456,0.63042 -0.09456,0.34673 -0.357235,0.65143 -0.252167,0.29419 -0.703965,0.50433 -0.451798,0.19963 -1.155763,0.19963 h -2.616227 l -0.525347,-1.93327 h 2.038346 q 0.08405,0 0.220646,0.0105 0.147097,0 0.27318,-0.021 0.13659,-0.0315 0.231152,-0.0841 0.10507,-0.063 0.10507,-0.18912 0,-0.17862 -0.126083,-0.32572 -0.126084,-0.14709 -0.24166,-0.27318 l -1.523506,-1.72313 q -0.199631,-0.22065 -0.388756,-0.4518 -0.189125,-0.23116 -0.336222,-0.48332 -0.147097,-0.25217 -0.24166,-0.52535 -0.08405,-0.28369 -0.08405,-0.59889 0,-0.28369 0.09456,-0.63042 0.09456,-0.34673 0.346729,-0.64092 0.262674,-0.3047 0.714472,-0.50434 0.451798,-0.21013 1.155763,-0.21013 h 2.416595 z" style="stroke-width:0.32834172px;fill:#fd00fd;fill-opacity:1" inkscape:connector-curvature="0"/>
            <path id="path847" d="m 62.63489,294.45122 q 0.13659,0 0.304701,-0.16811 0.168111,-0.16811 0.315208,-0.46231 0.157604,-0.3047 0.252166,-0.72497 0.10507,-0.42028 0.10507,-0.91411 0,-0.47281 -0.252167,-0.67244 -0.252166,-0.19963 -0.724978,-0.19963 -0.472812,0 -0.724979,0.19963 -0.252166,0.19963 -0.252166,0.67244 0,0.49383 0.09456,0.91411 0.105069,0.42027 0.252167,0.72497 0.157604,0.2942 0.325715,0.46231 0.168111,0.16811 0.304701,0.16811 z m 0.441291,-4.8542 q 0.65143,0 1.092721,0.1576 0.451798,0.1471 0.735486,0.38876 0.294194,0.24166 0.451798,0.53585 0.157604,0.28369 0.220645,0.55687 0.07355,0.26267 0.08406,0.47281 0.01051,0.21014 0.01051,0.29419 0,0.746 -0.210139,1.513 -0.199632,0.7565 -0.598895,1.37641 -0.388757,0.6094 -0.956131,0.99816 -0.556868,0.38876 -1.271339,0.38876 -0.714472,0 -1.281846,-0.38876 -0.556868,-0.38876 -0.956132,-0.99816 -0.388756,-0.61991 -0.598895,-1.37641 -0.199632,-0.767 -0.199632,-1.513 0,-0.084 0.01051,-0.29419 0.01051,-0.21014 0.07355,-0.47281 0.07355,-0.27318 0.231152,-0.55687 0.157604,-0.29419 0.441292,-0.53585 0.294194,-0.24166 0.735485,-0.38876 0.451798,-0.1576 1.103228,-0.1576 z" style="stroke-width:0.32834172px;fill:#fd00fd;fill-opacity:1" inkscape:connector-curvature="0"/>
            <path id="path849" d="m 66.145685,291.40421 v -1.6601 h 0.441291 q -0.04203,-0.49382 0.03152,-0.90359 0.08406,-0.42028 0.304701,-0.71448 0.231153,-0.29419 0.619909,-0.45179 0.399264,-0.16811 0.987652,-0.16811 h 1.071708 l 0.504333,1.71263 h -0.745993 q -0.168111,0 -0.315208,0 -0.13659,0 -0.241659,0.042 -0.10507,0.042 -0.168111,0.15761 -0.05254,0.10507 -0.03152,0.32571 h 1.187284 v 1.6601 h -1.187284 v 4.68609 h -2.017332 v -4.68609 z" style="stroke-width:0.32834172px;fill:#fd00fd;fill-opacity:1" inkscape:connector-curvature="0"/>
            <path id="path851" d="m 72.563943,289.74411 h 1.061201 v 1.6601 h -1.061201 v 2.41659 q 0,0.22065 0.09456,0.37825 0.105069,0.15761 0.420277,0.17862 h 0.798527 l -0.504333,1.71263 h -0.914103 q -0.40977,0 -0.767006,-0.084 -0.346729,-0.0946 -0.609403,-0.31521 -0.252166,-0.22065 -0.399263,-0.58839 -0.13659,-0.37825 -0.13659,-0.95613 v -2.74231 h -0.451798 v -1.6601 h 0.451798 v -1.23982 l 2.017331,-0.59889 z" style="stroke-width:0.32834172px;fill:#fd00fd;fill-opacity:1" inkscape:connector-curvature="0"/>
            <path id="path853" d="m 81.629949,296.0903 h -2.174935 l -0.935118,-3.83503 h -0.03152 l -0.935118,3.83503 h -2.174935 l -1.712631,-6.34619 h 2.153922 l 0.777513,4.27633 h 0.03152 l 0.92461,-4.27633 h 1.901756 l 0.92461,4.27633 h 0.03152 l 0.777513,-4.27633 h 2.153922 z" style="stroke-width:0.32834172px;fill:#fd00fd;fill-opacity:1" inkscape:connector-curvature="0"/>
            <path id="path855" d="m 87.050053,291.45674 h -0.65143 q -0.115577,0 -0.283688,0.021 -0.168111,0.0105 -0.325715,0.0946 -0.157604,0.0736 -0.27318,0.25217 -0.105069,0.17861 -0.105069,0.50433 0,0.35723 0.115576,0.70396 0.115576,0.34673 0.325715,0.63042 0.220646,0.28369 0.525347,0.48332 0.304701,0.18912 0.672444,0.23115 z m 2.017331,4.63356 h -2.027838 q -0.7565,0 -1.428944,-0.3047 -0.672443,-0.31521 -1.176776,-0.85106 -0.493826,-0.53586 -0.78802,-1.23982 -0.294195,-0.71447 -0.294195,-1.513 0,-0.47281 0.126084,-0.90359 0.126083,-0.4413 0.430784,-0.77752 0.304701,-0.34673 0.809034,-0.54636 0.51484,-0.21014 1.271339,-0.21014 h 3.078532 z" style="stroke-width:0.32834172px;fill:#fd00fd;fill-opacity:1" inkscape:connector-curvature="0"/>
            <path id="path857" d="m 92.189423,289.74411 v 0.36775 q 0.304701,-0.28369 0.65143,-0.38876 0.346729,-0.11558 0.756499,-0.12608 v 1.8177 q -0.399263,0.021 -0.756499,0.16811 -0.357236,0.14709 -0.567375,0.51484 v 3.99263 h -2.017331 v -6.34619 z" style="stroke-width:0.32834172px;fill:#fd00fd;fill-opacity:1" inkscape:connector-curvature="0"/>
            <path id="path859" d="m 97.720168,291.63536 q 0,-0.12608 -0.06304,-0.18912 -0.06304,-0.063 -0.157604,-0.0946 -0.09456,-0.0315 -0.199632,-0.0315 -0.105069,-0.0105 -0.199631,-0.0105 -0.472813,0 -0.724979,0.24166 -0.252166,0.23115 -0.252166,0.70396 0,0.36774 0.13659,0.7565 0.157604,-0.0841 0.40977,-0.23115 0.252167,-0.1471 0.483319,-0.33622 0.231153,-0.18913 0.399264,-0.38876 0.168111,-0.21014 0.168111,-0.42028 z m 1.250325,4.45494 h -1.218804 q -0.7565,0 -1.428944,-0.3047 -0.672443,-0.31521 -1.176776,-0.85106 -0.493826,-0.53586 -0.78802,-1.23982 -0.294195,-0.71447 -0.294195,-1.513 0.01051,-0.67244 0.168111,-1.15576 0.168111,-0.49383 0.51484,-0.80904 0.346729,-0.32571 0.89309,-0.47281 0.556867,-0.1576 1.33438,-0.14709 h 0.420278 q 0.619909,0 1.040186,0.11557 0.420278,0.10507 0.682951,0.27318 0.262673,0.16811 0.399264,0.37825 0.13659,0.19963 0.189124,0.39927 0.06304,0.18912 0.06304,0.35723 0.01051,0.15761 0.01051,0.23115 0,0.52535 -0.210139,0.96664 -0.199631,0.43079 -0.525346,0.78802 -0.325715,0.34673 -0.745993,0.64092 -0.40977,0.28369 -0.819541,0.51484 0.399264,0.0841 0.672444,0.10507 0.27318,0.0105 0.525347,0.0105 h 0.798527 z" style="stroke-width:0.32834172px;fill:#fd00fd;fill-opacity:1" inkscape:connector-curvature="0"/>
        </g>
        <text id="text821" x="72.949409" y="91.380951" style="font-style:normal;font-variant:normal;font-weight:normal;font-stretch:normal;font-size:8.46666622px;line-height:125%;font-family:'Revue LT';-inkscape-font-specification:'Revue LT';letter-spacing:0px;word-spacing:0px;fill:#000000;fill-opacity:1;stroke:none;stroke-width:0.26458332px;stroke-linecap:butt;stroke-linejoin:miter;stroke-opacity:1" xml:space="preserve">
            <tspan id="tspan819" x="72.949409" y="99.181259" style="stroke-width:0.26458332px" sodipodi:role="line"/>

        </text>
    </g>
</svg>
